<svg id="siligong" xmlns="http://www.w3.org/2000/svg" viewBox="0 0 1066.17 1571.13"><defs><style>.cls-1{fill:#6acff6;}.cls-2{fill:#69be5a;}.cls-3{fill:#fff34d;}.cls-4{fill:#303d3b;}</style></defs><title>Artboard 3</title><circle class="cls-1" cx="532.93" cy="531.05" r="524.71" transform="translate(-219.42 532.38) rotate(-45)"/><path class="cls-2" d="M931.54,189.86Q918.9,175.1,905.2,161.3C429.64,137.65,161,263.53,44.35,339.36q-8.16,20.76-14.53,42.35A524.75,524.75,0,0,0,8.22,531.05c0,289.79,234.92,524.71,524.71,524.71s524.7-234.92,524.7-524.71A522.65,522.65,0,0,0,931.54,189.86Z"/><path class="cls-3" d="M322.33,1011.74a522.78,522.78,0,0,0,210.6,44c289.79,0,524.7-234.92,524.7-524.71a527.87,527.87,0,0,0-7.39-88C507.11,467.62,357.33,875.38,322.33,1011.74Z"/><path class="cls-1" d="M1032.39,692.18c-249.76,102.24-344.72,251.44-380.81,350.1C831.69,1000.65,976.27,866.27,1032.39,692.18Z"/><path class="cls-4" d="M962.43,643.9C853.73,677.36,781.35,781,681,754c-97.17-26.21-115.25-213.8-115.25-213.8a171.71,171.71,0,0,1-3.7-69.42c7.06-47.35,16.43-97.11,8.88-143.18-10.43-63.67-59.73-96.43-123.69-101.19-62.85-4.67-119.11,33.45-140.34,91.43-31.9,87-31.9,87-122.12,118,9.2,51.43,46.49,73.9,91.44,76.42,40.26,2.26,81.27-9,134.07-15.93-10.72,22.56-21.25,44.77-30.84,66.84-51.65,68.16-94.19,159.79-94.19,227.19,0,152,123.22,275.24,275.24,275.24a273.84,273.84,0,0,0,134.83-35.32l0,1.88C893.79,907.94,953.57,700.55,953.57,700.55,979.88,646.58,962.43,643.9,962.43,643.9Z"/><path class="cls-4" d="M533.08,1066.17c-142.39,0-276.26-55.46-376.94-156.14S0,675.47,0,533.08,55.45,256.82,156.14,156.14,390.69,0,533.08,0,809.34,55.45,910,156.14s156.14,234.55,156.14,376.94S1010.72,809.34,910,910,675.47,1066.17,533.08,1066.17Zm0-1045.35c-136.83,0-265.47,53.28-362.22,150s-150,225.39-150,362.22,53.28,265.47,150,362.23,225.39,150,362.22,150,265.47-53.29,362.23-150,150-225.4,150-362.23-53.29-265.47-150-362.22S669.91,20.82,533.08,20.82Z"/><path class="cls-4" d="M106.51,1244.16c-8.58-4.08-18.51-6.79-29-9.45L74,1233.62h-.57c-11.4-1-21.7-5.2-27.58-9.27-2.7-1.87-4.56-3.5-5.52-5a8.35,8.35,0,0,1-1.24-5c0-4.48,2.61-8.65,7.75-12.46,6.28-4.65,15.15-7.31,24.31-7.31,13.14,0,24,6.49,35.71,14.34a14.29,14.29,0,0,0,7.91,2.41,14,14,0,0,0,11.93-6.57,14.33,14.33,0,0,0-4-19.83l-.58-.37c-12-7.79-28.51-18.46-51-18.46-15.34,0-30,4.51-41.34,12.7-12.36,9.14-19.45,22.13-19.45,35.65A38.14,38.14,0,0,0,16,1234.62c5,7.92,12.54,14.32,22.48,19A124.15,124.15,0,0,0,68.81,1263l.73,0c11.89,1.77,23.24,5.61,30.36,10.28a19.27,19.27,0,0,1,6.16,6.06,10.6,10.6,0,0,1,1.71,6.05c0,5.34-3,10.24-8.88,14.56-7,5.1-16.92,8-27.36,8H71c-15.39,0-32.16-9.24-41.85-17.17a14.52,14.52,0,0,0-9.19-3.25,14.37,14.37,0,0,0-11.19,5.32A14.6,14.6,0,0,0,11,1313.08c13.46,10.63,34.88,22.54,60.51,23.54h0c16.48,0,32.15-4.8,44.08-13.56,13.25-9.55,20.86-23.36,20.86-37.8a39.93,39.93,0,0,0-5.91-21C125.54,1256.15,117.67,1249.6,106.51,1244.16Z"/><path class="cls-4" d="M174.57,1336.94c8.46,0,15.61-7,15.61-15.18V1185.82c0-8.22-7.15-15.17-15.61-15.17a15.12,15.12,0,0,0-15.39,15.17v135.94A15.12,15.12,0,0,0,174.57,1336.94Z"/><path class="cls-4" d="M234,1336.62h75.35c8.08,0,15.17-7.19,15.17-15.39,0-8.46-6.95-15.61-15.17-15.61H249.18v-119.8a15.16,15.16,0,0,0-15.11-15.17,14.87,14.87,0,0,0-14.89,15.17v135.94A14.55,14.55,0,0,0,234,1336.62Z"/><path class="cls-4" d="M357.07,1336.94a15.16,15.16,0,0,0,15.11-15.18V1185.82a15.16,15.16,0,0,0-15.11-15.17c-8.49,0-14.89,6.52-14.89,15.17v135.94C342.18,1330.41,348.58,1336.94,357.07,1336.94Z"/><path class="cls-4" d="M481.92,1336.94a88.16,88.16,0,0,0,53.83-18.47,15.3,15.3,0,0,0,5.19-6.45l.24-.52v-.59l0-.05.26-.53.06-.37c.07-.39.15-.75.23-1.09a13.37,13.37,0,0,0,.42-3.24v-50.92a16.1,16.1,0,0,0-15.79-16.09H480.54A15.33,15.33,0,0,0,464.91,1254a15.84,15.84,0,0,0,15.63,15.62h30.64V1298a60.76,60.76,0,0,1-29.16,7.71c-15.49,0-29.6-5.71-39.79-16.13a52.09,52.09,0,0,1-16.54-37.82,52.66,52.66,0,0,1,16.56-38.34c10.13-10.37,24.23-16.07,39.68-16.07a57.6,57.6,0,0,1,34.84,11.89,15.89,15.89,0,0,0,22.21-2.51,16,16,0,0,0,3.07-12,15.24,15.24,0,0,0-6-10.17A87.51,87.51,0,0,0,481.92,1166c-48.26,0-87.52,38.44-87.52,85.68a83.5,83.5,0,0,0,25.73,60.43A88.3,88.3,0,0,0,481.92,1336.94Z"/><path class="cls-4" d="M654.5,1336.94a78.21,78.21,0,0,0,56.88-25.43,87.15,87.15,0,0,0,0-120A77.49,77.49,0,0,0,654.5,1166a79.57,79.57,0,0,0-58.27,25.44,87.21,87.21,0,0,0-23.49,60c0,22.81,8.35,44.13,23.49,60A80.31,80.31,0,0,0,654.5,1336.94Zm0-139.63c12.93,0,25.21,5.53,34.58,15.56a57.14,57.14,0,0,1,15,38.62,55.92,55.92,0,0,1-15,38.38c-9.51,10.19-21.79,15.8-34.58,15.8-13.58,0-25.85-5.46-35.54-15.84-9.5-9.73-15-23.7-15-38.34s5.46-28.63,15-38.62A47.53,47.53,0,0,1,654.5,1197.31Z"/><path class="cls-4" d="M861.41,1331.51a15.2,15.2,0,0,0,11.45,5.43,15.45,15.45,0,0,0,15.32-15.18V1187.9a15.23,15.23,0,0,0-15.11-15,14.94,14.94,0,0,0-14.89,15v87.21l-70.09-96.72a14.5,14.5,0,0,0-12-6.13,15.7,15.7,0,0,0-8.91,2.79c-4.64,3.4-7,8.43-6,12.91v133.8a15,15,0,1,0,30,0V1233.9l68.94,95.86A7.83,7.83,0,0,0,861.41,1331.51Z"/><path class="cls-4" d="M1042.29,1238.62H996.44A15.33,15.33,0,0,0,980.81,1254a15.84,15.84,0,0,0,15.63,15.62h30.74v28.28c-10.36,5.3-19.68,7.77-29.21,7.77-15.5,0-29.62-5.71-39.82-16.13a52.11,52.11,0,0,1-16.54-37.82,52.66,52.66,0,0,1,16.54-38.34c10.14-10.37,24.23-16.07,39.68-16.07a57.6,57.6,0,0,1,34.84,11.89,15.89,15.89,0,0,0,22.21-2.51,16,16,0,0,0,3.07-12,15.24,15.24,0,0,0-6-10.17A87.51,87.51,0,0,0,997.82,1166c-48.26,0-87.52,38.44-87.52,85.68A83.5,83.5,0,0,0,936,1312.15a88.68,88.68,0,0,0,115.67,6.32,15.56,15.56,0,0,0,5.24-6.45l.24-.52v-.59l0-.05.26-.53.06-.37c.07-.39.15-.75.23-1.09a13.37,13.37,0,0,0,.42-3.24v-50.92A16.15,16.15,0,0,0,1042.29,1238.62Z"/><path class="cls-4" d="M302.28,1415.57a14.65,14.65,0,0,0-8.09-8,14.47,14.47,0,0,0-5.85-1.22,15.23,15.23,0,0,0-14,9.24l-42.63,101.2-42.63-101.22a15.07,15.07,0,0,0-13.81-9.22,14.29,14.29,0,0,0-5.8,1.21,14.76,14.76,0,0,0-8.26,19.64l56.45,134.56.18.44.34.35a5,5,0,0,1,.58,1,2.7,2.7,0,0,0,.76,1.14,9,9,0,0,0,.67.81s0,0,0,.06v.92l1.13.74c.31.21.61.16.81.25l.61,1.13h1.45c.08,0-.06.29,0,.34s0,.28,0,.32v.34h2.87l.29,1h2.06c.17,0,.5.24.8.28a11.23,11.23,0,0,0,1.5.23,8.86,8.86,0,0,0,1.37-.13,6.72,6.72,0,0,1,.94-.12l1.8-.31.39-1h1.15l.56-.18a7.85,7.85,0,0,0,1.6-.72c.11-.08.21-.11.22-.13a4.2,4.2,0,0,0,1.11-.71v0a3.42,3.42,0,0,1,.43-.36,8.07,8.07,0,0,0,.95-.8,3.94,3.94,0,0,0,.86-1.21c0-.06.12-.11.18-.17l.39-.41a2.48,2.48,0,0,0,.93-1.16,7.48,7.48,0,0,0,.75-1.55c0-.12.08-.22.12-.3l57-134.73A15.23,15.23,0,0,0,302.28,1415.57Z"/><path class="cls-4" d="M373,1414.5a15.17,15.17,0,0,0-14.52-9.62,15.36,15.36,0,0,0-14.56,9.69l-50.94,135.77a15.53,15.53,0,0,0,9.08,19.74l.09,0a16.13,16.13,0,0,0,5.17.82,15.58,15.58,0,0,0,14.32-9.84l10.68-28.48h52.53l10.67,28.45a15.05,15.05,0,0,0,14.1,9.79,14.62,14.62,0,0,0,5.27-.82,15.52,15.52,0,0,0,9.06-19.78Zm.52,88.12h-30.1l15.05-39.95Z"/><path class="cls-4" d="M531.93,1539.62H472.18v-119.8c0-8.22-7.15-15.17-15.61-15.17a15.31,15.31,0,0,0-15.39,15.17v135.94c0,8.41,6.91,14.86,15.41,14.86h75.34c8.09,0,15.18-7.19,15.18-15.39C547.11,1546.77,540.16,1539.62,531.93,1539.62Z"/><path class="cls-4" d="M652.44,1539.62H592.18v-119.8a15.16,15.16,0,0,0-15.11-15.17,14.87,14.87,0,0,0-14.89,15.17v135.94a14.59,14.59,0,0,0,14.91,14.86h75.35c8.08,0,15.17-7.19,15.17-15.39C667.61,1546.77,660.66,1539.62,652.44,1539.62Z"/><path class="cls-4" d="M772.94,1434.62a15,15,0,1,0,0-30H697.6a15.28,15.28,0,0,0-15.42,15.2v135.94a15,15,0,0,0,15.3,14.86h75.46c8.08,0,15.17-7.19,15.17-15.39,0-8.46-6.94-15.61-15.17-15.61H713.18v-37h51c8.22,0,15.17-7.16,15.17-15.62,0-8.2-7.09-15.38-15.17-15.38h-51v-37Z"/><path class="cls-4" d="M923.29,1409.3a14.74,14.74,0,0,0-8.91-3,15.41,15.41,0,0,0-12.35,6.27l-37.39,51.15-37.33-51.08a14.51,14.51,0,0,0-12-6.34,15.37,15.37,0,0,0-9,3,14.93,14.93,0,0,0-6.18,10.12,14.31,14.31,0,0,0,3,10.92l46.12,64v61.4a15.55,15.55,0,0,0,15.5,15.18,15.36,15.36,0,0,0,15.5-15.18v-61.39l46.59-64.12A15.33,15.33,0,0,0,923.29,1409.3Z"/></svg>