<?xml version="1.0" encoding="utf-8"?>
<!-- Generator: Adobe Illustrator 24.0.0, SVG Export Plug-In . SVG Version: 6.00 Build 0)  -->
<svg version="1.1" id="siligong" xmlns="http://www.w3.org/2000/svg" xmlns:xlink="http://www.w3.org/1999/xlink" x="0px" y="0px"
	 viewBox="0 0 1066.2 1065.6" style="enable-background:new 0 0 1066.2 1065.6;" xml:space="preserve">
<style type="text/css">
	.st0{fill:#6ACFF6;}
	.st1{fill:#69BE5A;}
	.st2{fill:#FFF34D;}
	.st3{fill:#303D3B;}
</style>
<title>Artboard 3</title>
<circle class="st0" cx="532.9" cy="531.1" r="524.7"/>
<path class="st1" d="M931.5,189.9c-8.4-9.8-17.2-19.4-26.3-28.6C429.6,137.6,161,263.5,44.3,339.4c-5.4,13.8-10.3,28-14.5,42.4
	C15.5,430.2,8.2,480.5,8.2,531c0,289.8,234.9,524.7,524.7,524.7s524.7-234.9,524.7-524.7C1057.8,405.9,1013.1,284.8,931.5,189.9z"/>
<path class="st2" d="M322.3,1011.7c66.4,29.1,138.1,44.1,210.6,44c289.8,0,524.7-234.9,524.7-524.7c0-29.5-2.5-58.9-7.4-88
	C507.1,467.6,357.3,875.4,322.3,1011.7z"/>
<path class="st0" d="M1032.4,692.2c-249.8,102.2-344.7,251.4-380.8,350.1C831.7,1000.7,976.3,866.3,1032.4,692.2z"/>
<path class="st3" d="M962.4,643.9C853.7,677.4,781.3,781,681,754c-97.2-26.2-115.2-213.8-115.2-213.8c-6-22.6-7.2-46.3-3.7-69.4
	c7.1-47.4,16.4-97.1,8.9-143.2c-10.4-63.7-59.7-96.4-123.7-101.2c-62.9-4.7-119.1,33.5-140.3,91.4c-31.9,87-31.9,87-122.1,118
	c9.2,51.4,46.5,73.9,91.4,76.4c40.3,2.3,81.3-9,134.1-15.9c-10.7,22.6-21.2,44.8-30.8,66.8c-51.6,68.2-94.2,159.8-94.2,227.2
	c0,152,123.2,275.2,275.2,275.2c47.2,0.1,93.7-12.1,134.8-35.3v1.9c198.5-124.2,258.2-331.6,258.2-331.6
	C979.9,646.6,962.4,643.9,962.4,643.9z"/>
<path class="st3" d="M533.1,1066.2c-142.4,0-276.3-55.5-376.9-156.1S0,675.5,0,533.1s55.5-276.3,156.1-376.9S390.7,0,533.1,0
	S809.3,55.5,910,156.1s156.1,234.6,156.1,376.9S1010.7,809.3,910,910S675.5,1066.2,533.1,1066.2z M533.1,20.8
	c-136.8,0-265.5,53.3-362.2,150S20.9,396.2,20.9,533s53.3,265.5,150,362.2s225.4,150,362.2,150s265.5-53.3,362.2-150
	s150-225.4,150-362.2s-53.3-265.5-150-362.2S669.9,20.8,533.1,20.8L533.1,20.8z"/>
</svg>
