<?xml version="1.0" encoding="utf-8"?>
<!-- Generator: Adobe Illustrator 18.1.0, SVG Export Plug-In . SVG Version: 6.00 Build 0)  -->
<svg version="1.1" id="Layer_1" xmlns="http://www.w3.org/2000/svg" xmlns:xlink="http://www.w3.org/1999/xlink" x="0px" y="0px"
	 viewBox="0.1 153.7 575.9 124.5" enable-background="new 0.1 153.7 575.9 124.5" xml:space="preserve">
<g>
	<path fill="#404040" d="M58,248.4c-0.1-2.4-0.1-4.7-0.1-6.8v-28.1c0-3.6-0.6-7-1.6-10.1c-1-3.1-2.8-5.8-5-8.1
		c-2.2-2.2-5-4.1-8.4-5.5c-3.4-1.3-7.5-1.9-12.1-1.9c-5.3,0-10.2,0.9-14.8,2.7c-4.6,1.8-8.6,4.1-11.7,7.1L4,197.8l7.1,8.6l0.1-0.1
		c2.1-2.1,4.9-4,8-5.3s6.7-2.1,10.2-2.1c4.7,0,8.6,1.2,11.4,3.4s4.3,5.8,4.3,10.5v1.5c-5.3,0-10.7,0.3-16,0.7s-10.2,1.5-14.5,3
		c-4.3,1.5-7.8,3.7-10.5,6.7c-2.7,3-4,6.8-4,11.8c0,3.7,0.7,7,2.2,9.5c1.5,2.5,3.4,4.6,5.8,6.2c2.2,1.5,4.9,2.7,7.7,3.4
		c2.8,0.7,5.5,1,8,1c4.9,0,9.3-1,12.9-3c3.6-1.9,6.5-4.6,8.9-8c0,3,0.4,6.1,1,9v0.1h12.1v-0.4C58.3,252.8,58,250.8,58,248.4z
		 M45,226.9c0,5.3-1.6,9.9-4.7,13.3c-3.1,3.6-7.7,5.3-13.6,5.3c-1.6,0-3.3-0.1-4.7-0.4c-1.5-0.3-3-0.9-4.1-1.6s-2.2-1.8-3-3.1
		c-0.7-1.2-1.2-2.8-1.2-4.6c0-2.7,0.9-4.7,2.7-6.4s4-2.8,6.8-3.6c2.7-0.7,5.8-1.3,9.2-1.6s6.7-0.4,9.9-0.4H45V226.9z"/>
	<path fill="#404040" d="M122.5,238.2c-1.6,2.1-3.8,3.8-6.5,5c-2.7,1.2-5.6,1.9-8.7,1.9c-3.3,0-6.2-0.6-8.9-1.9
		c-2.5-1.2-4.7-3-6.5-5s-3.1-4.6-4.1-7.4c-0.9-2.8-1.5-5.8-1.5-8.7c0-3.1,0.4-5.9,1.5-8.7c0.9-2.8,2.4-5.2,4.1-7.4
		c1.8-2.1,4-3.8,6.5-5c2.5-1.2,5.5-1.9,8.7-1.9c3,0,5.9,0.7,8.6,2.1c2.7,1.3,4.7,3.1,6.1,5.2l0.1,0.3l9.8-7.8l-0.1-0.1
		c-2.7-3.4-6.2-6.2-10.8-8c-4.4-1.8-9.2-2.8-13.6-2.8c-4.9,0-9.6,0.9-13.8,2.5c-4.3,1.6-8,4-11.1,7c-3.1,3-5.5,6.7-7.2,10.8
		s-2.7,8.9-2.7,14.1c0,5.2,0.9,9.9,2.7,14.1s4.3,7.8,7.4,10.8c3.1,3,6.8,5.3,11.1,7c4.3,1.6,8.9,2.5,13.9,2.5
		c5.2,0,9.9-0.9,14.1-2.7c4.1-1.8,7.5-4.3,10.4-7.5l0.1-0.1l-9.2-8.1L122.5,238.2z"/>
	<path fill="#404040" d="M187.7,238.2c-1.6,2.1-3.8,3.8-6.5,5c-2.7,1.2-5.6,1.9-8.7,1.9c-3.3,0-6.2-0.6-8.9-1.9
		c-2.5-1.2-4.7-3-6.5-5s-3.1-4.6-4.1-7.4c-0.9-2.8-1.5-5.8-1.5-8.7c0-3.1,0.4-5.9,1.5-8.7c0.9-2.8,2.4-5.2,4.1-7.4
		c1.8-2.1,4-3.8,6.5-5c2.5-1.2,5.5-1.9,8.7-1.9c3,0,5.9,0.7,8.6,2.1c2.7,1.3,4.7,3.1,6.1,5.2l0.1,0.3l9.8-7.8l-0.1-0.1
		c-2.7-3.4-6.2-6.2-10.8-8c-4.4-1.8-9.2-2.8-13.6-2.8c-4.9,0-9.6,0.9-13.8,2.5c-4.3,1.6-8,4-11.1,7c-3.1,3-5.5,6.7-7.2,10.8
		s-2.7,8.9-2.7,14.1c0,5.2,0.9,9.9,2.7,14.1s4.3,7.8,7.4,10.8c3.1,3,6.8,5.3,11.1,7c4.3,1.6,8.9,2.5,13.9,2.5
		c5.2,0,9.9-0.9,14.1-2.7c4.1-1.8,7.5-4.3,10.4-7.5l0.1-0.1l-9-8.1L187.7,238.2z"/>
	<path fill="#404040" d="M259.2,196.9c-2.7-3-6.1-5.2-9.9-6.8c-3.8-1.5-8.3-2.4-13-2.4s-9.2,0.9-13.3,2.5c-4.1,1.6-7.7,4-10.8,7.1
		c-3,3-5.3,6.7-7.1,10.9c-1.6,4.3-2.5,8.9-2.5,13.9s0.9,9.8,2.7,14.1c1.8,4.1,4.1,7.8,7.1,10.8s6.7,5.3,10.8,7
		c4.1,1.6,8.7,2.5,13.8,2.5c5.8,0,10.9-1,15.7-3.3c4.7-2.2,8.9-5.6,12.3-10.2l0.1-0.1l-9.5-7.5l-0.1,0.3c-1.8,2.7-4.3,5-7.4,6.8
		c-3.1,1.9-6.8,2.8-11.1,2.8c-2.8,0-5.5-0.4-7.8-1.5c-2.5-1-4.6-2.4-6.5-4c-1.9-1.8-3.4-3.8-4.4-6.1c-1-2.2-1.6-4.7-1.8-7.2h51.3
		v-0.3c0.1-0.7,0.1-1.5,0.1-2.2v-2.2c0-5.2-0.7-9.9-2.2-14.1C264,203.4,262,199.9,259.2,196.9z M216.3,216.1
		c0.1-2.4,0.9-4.6,1.9-6.8c1.2-2.2,2.5-4.1,4.3-5.8c1.8-1.6,3.8-3,6.2-3.8c2.4-0.9,4.9-1.5,7.5-1.5c3,0,5.5,0.4,7.7,1.5
		c2.2,0.9,4,2.2,5.5,3.8c1.5,1.6,2.5,3.6,3.4,5.6c0.7,2.1,1.2,4.4,1.3,6.8h-37.9V216.1z"/>
	<rect x="283" y="153.7" fill="#404040" width="13.3" height="102.5"/>
	<path fill="#404040" d="M379.3,208.2c-1.8-4.1-4.3-7.8-7.4-10.8c-3.1-3-7-5.3-11.2-7.1c-4.3-1.6-8.9-2.5-13.9-2.5
		c-4.9,0-9.6,0.9-13.9,2.5s-8,4-11.1,7.1c-3.1,3-5.6,6.7-7.4,10.8s-2.7,8.7-2.7,13.8c0,5,0.9,9.6,2.7,13.9c1.8,4.1,4.3,7.8,7.4,10.9
		c3.1,3.1,6.8,5.5,11.1,7.1c4.3,1.6,8.9,2.5,13.9,2.5c4.9,0,9.6-0.9,13.9-2.5s8-4.1,11.2-7.1c3.1-3.1,5.6-6.7,7.4-10.9
		c1.8-4.1,2.7-8.9,2.7-13.9C381.9,217,381,212.3,379.3,208.2z M366.7,230.8c-0.9,2.8-2.4,5.2-4.1,7.4c-1.8,2.1-4,3.8-6.7,5
		c-2.7,1.2-5.6,1.9-9,1.9s-6.5-0.6-9-1.9c-2.7-1.2-4.9-3-6.7-5c-1.8-2.1-3.1-4.6-4.1-7.4c-0.9-2.8-1.5-5.6-1.5-8.7
		c0-3.1,0.4-5.9,1.5-8.7c0.9-2.8,2.4-5.2,4.1-7.2c1.8-2.1,4-3.7,6.7-5c2.7-1.2,5.6-1.9,9-1.9s6.5,0.6,9,1.9c2.7,1.2,4.9,3,6.7,5
		c1.8,2.1,3.1,4.6,4.1,7.2c0.9,2.8,1.5,5.8,1.5,8.7C368,225,367.6,228,366.7,230.8z"/>
	<path fill="#FFA216" d="M533.5,243.8L533.5,243.8c0,3.7-3,6.7-6.7,6.7h-94.8c-3.7,0-6.7-3-6.7-6.7l0,0c0-3.7,3-6.7,6.7-6.7h94.8
		C530.6,237.2,533.5,240.1,533.5,243.8z"/>
	<path fill="#6556C4" d="M488.3,160.4L488.3,160.4c0,3.7-3,6.7-6.7,6.7h-71c-3.7,0-6.7-3-6.7-6.7l0,0c0-3.7,3-6.7,6.7-6.7h71
		C485.3,153.7,488.3,156.7,488.3,160.4z"/>
	<path fill="#2D96CB" d="M533.5,188.2L533.5,188.2c0,3.7-3,6.7-6.7,6.7h-94.8c-3.7,0-6.7-3-6.7-6.7l0,0c0-3.7,3-6.7,6.7-6.7h94.8
		C530.6,181.5,533.5,184.5,533.5,188.2z"/>
	<path fill="#45AE3D" d="M576,216L576,216c0,3.7-3,6.7-6.7,6.7H454c-3.7,0-6.7-3-6.7-6.7l0,0c0-3.7,3-6.7,6.7-6.7h115.4
		C573,209.3,576,212.3,576,216z"/>
	<path fill="#F74E0A" d="M488.3,271.6L488.3,271.6c0,3.7-3,6.7-6.7,6.7h-71c-3.7,0-6.7-3-6.7-6.7l0,0c0-3.7,3-6.7,6.7-6.7h71
		C485.3,265,488.3,267.9,488.3,271.6z"/>
</g>
</svg>
