<svg id="layer_1" data-name="layer 1" xmlns="http://www.w3.org/2000/svg" viewBox="0 0 502.74 128"><defs><style>.cls-1{fill:#2a1944;}</style></defs><title>e-text-purple</title><polygon class="cls-1" points="144.5 83.52 144.5 29.96 180.5 29.96 180.5 40.85 156.98 40.85 156.98 50.99 179.22 50.99 179.22 61.35 156.98 61.35 156.98 72.47 181.87 72.47 181.87 83.52 144.5 83.52"/><path class="cls-1" d="M211.67,67.1h-1.59c-1.37,0-2.74.07-4.13.19a16.74,16.74,0,0,0-3.7.72,6.83,6.83,0,0,0-2.69,1.55,3.58,3.58,0,0,0-1.06,2.68,3.32,3.32,0,0,0,.49,1.82,3.8,3.8,0,0,0,1.25,1.21,5.23,5.23,0,0,0,1.74.64,9.77,9.77,0,0,0,1.89.19A7.65,7.65,0,0,0,209.66,74a7.74,7.74,0,0,0,2-5.63ZM188.9,51a21.63,21.63,0,0,1,7.75-4.77,26.76,26.76,0,0,1,9-1.58,24,24,0,0,1,8.06,1.17,12,12,0,0,1,5.33,3.63,15.53,15.53,0,0,1,3,6.2,36.19,36.19,0,0,1,.95,8.89v19H211.67v-4h-.23a9.35,9.35,0,0,1-4.35,3.64,15.42,15.42,0,0,1-6.32,1.28,19.46,19.46,0,0,1-4.69-.6,13.57,13.57,0,0,1-4.42-2,10.58,10.58,0,0,1-3.29-3.63,11.18,11.18,0,0,1-1.29-5.6A9.5,9.5,0,0,1,189.31,66a14.65,14.65,0,0,1,5.75-3.85,30.16,30.16,0,0,1,7.83-1.82,80.8,80.8,0,0,1,8.4-.45v-.61a4.62,4.62,0,0,0-2-4.12,8.48,8.48,0,0,0-4.84-1.33A12,12,0,0,0,199.37,55a16.35,16.35,0,0,0-4.2,2.72Z"/><path class="cls-1" d="M253.94,57a13.93,13.93,0,0,0-3.55-2.43,9.93,9.93,0,0,0-4.32-1,7.6,7.6,0,0,0-3.21.68,2.41,2.41,0,0,0-1.48,2.35A2.35,2.35,0,0,0,243,58.86a35.35,35.35,0,0,0,5.26,1.51,27.65,27.65,0,0,1,4.27,1.29,14.87,14.87,0,0,1,3.9,2.19,10.6,10.6,0,0,1,2.8,3.33,9.81,9.81,0,0,1,1.06,4.69,11.29,11.29,0,0,1-5.19,10,16.24,16.24,0,0,1-5.18,2.2,25,25,0,0,1-5.75.67,28.57,28.57,0,0,1-9-1.47,18.82,18.82,0,0,1-7.37-4.35l7-7.34a14,14,0,0,0,4.08,3A11.31,11.31,0,0,0,244,75.8a6.73,6.73,0,0,0,3-.72,2.57,2.57,0,0,0,1.48-2.53A2.73,2.73,0,0,0,246.61,70a33.16,33.16,0,0,0-5.68-1.73A29.58,29.58,0,0,1,237,67a12.16,12.16,0,0,1-3.52-2,10.31,10.31,0,0,1-2.54-3.17,9.81,9.81,0,0,1-1-4.54,11,11,0,0,1,1.44-5.79,12,12,0,0,1,3.71-3.89,16.35,16.35,0,0,1,5-2.24,21.66,21.66,0,0,1,5.48-.72A26.68,26.68,0,0,1,253.91,46a18,18,0,0,1,6.84,4Z"/><path class="cls-1" d="M289.39,89.19a33,33,0,0,1-2.54,5.26,15.92,15.92,0,0,1-3.32,3.93,13.31,13.31,0,0,1-4.55,2.46,20.45,20.45,0,0,1-6.16.83,29.67,29.67,0,0,1-3.59-.22,23.8,23.8,0,0,1-3.22-.61l1.37-10.44a13,13,0,0,0,2,.49,11.48,11.48,0,0,0,2,.19,5.61,5.61,0,0,0,4.16-1.32,10.9,10.9,0,0,0,2.2-3.75l1.21-3.1L263.21,45.85H277l8.4,24.2h.23l7.48-24.2h13.16Z"/><path class="cls-1" d="M341.61,44.26,334.8,62.64h13.47ZM356,83.52,351.82,73H331.1l-3.94,10.52H313.09L335.56,30h12.56l22.23,53.56Z"/><path class="cls-1" d="M401.27,64.45a10.59,10.59,0,0,0-.64-3.63,9.18,9.18,0,0,0-1.86-3.06,8.51,8.51,0,0,0-2.87-2.08,9,9,0,0,0-3.78-.76,8.72,8.72,0,0,0-3.75.76,8.41,8.41,0,0,0-2.76,2,9.24,9.24,0,0,0-1.74,3,11.26,11.26,0,0,0-.6,3.7,11,11,0,0,0,.6,3.63,9.54,9.54,0,0,0,1.74,3.07,8.63,8.63,0,0,0,2.76,2.12,8.44,8.44,0,0,0,3.75.79,8.94,8.94,0,0,0,3.82-.79,8.82,8.82,0,0,0,2.87-2.09,9.1,9.1,0,0,0,1.82-3,10.79,10.79,0,0,0,.64-3.71M413.07,80a26.47,26.47,0,0,1-1.59,9.61A18,18,0,0,1,407,96.34a18.39,18.39,0,0,1-7,4,29.74,29.74,0,0,1-9.11,1.32,36.88,36.88,0,0,1-10.25-1.51,28.11,28.11,0,0,1-9.12-4.39l6.21-8.85a18.07,18.07,0,0,0,6,3.59,19.23,19.23,0,0,0,6.47,1.18c3.63,0,6.31-1,8.06-2.88a11,11,0,0,0,2.6-7.64V78.9h-.22A12.23,12.23,0,0,1,396,82.53a15.91,15.91,0,0,1-6.74,1.37,17.83,17.83,0,0,1-7.64-1.56A16.74,16.74,0,0,1,376,78.15,18.42,18.42,0,0,1,372.45,72a22.68,22.68,0,0,1-1.21-7.45A23,23,0,0,1,372.45,57,19.24,19.24,0,0,1,376,50.76a17.3,17.3,0,0,1,5.63-4.35,17.08,17.08,0,0,1,7.57-1.62A16.81,16.81,0,0,1,396,46.22a11.85,11.85,0,0,1,5.22,4.47h.15V45.84h11.72Z"/><path class="cls-1" d="M422.16,45.85h12.41V83.52H422.16Zm13.31-12a6.34,6.34,0,0,1-.56,2.68,6.69,6.69,0,0,1-1.52,2.16,6.81,6.81,0,0,1-2.26,1.43,7.3,7.3,0,0,1-2.77.53,6.92,6.92,0,0,1-5.06-2,6.5,6.5,0,0,1-2.05-4.8,6.65,6.65,0,0,1,.53-2.61,6.19,6.19,0,0,1,1.52-2.16,8.21,8.21,0,0,1,2.27-1.47,6.79,6.79,0,0,1,2.79-.57,7.3,7.3,0,0,1,2.77.53A6.83,6.83,0,0,1,433.39,29a6.76,6.76,0,0,1,1.52,2.15,6.39,6.39,0,0,1,.56,2.69"/><rect class="cls-1" x="443.66" y="26.33" width="12.63" height="57.18"/><path class="cls-1" d="M501.34,56.51a18.79,18.79,0,0,0-3.9-6.43,16.67,16.67,0,0,0-6-4,20.21,20.21,0,0,0-7.64-1.4,22.14,22.14,0,0,0-8,1.43,19.21,19.21,0,0,0-6.43,4,18.89,18.89,0,0,0-4.31,6.35,21.22,21.22,0,0,0-1.59,8.36,20.94,20.94,0,0,0,1.62,8.47,18.12,18.12,0,0,0,4.47,6.25,19.37,19.37,0,0,0,6.61,3.85,24,24,0,0,0,8,1.33,23.25,23.25,0,0,0,10.09-2.08,17.53,17.53,0,0,0,7-5.94l-8.62-5.45a9.92,9.92,0,0,1-3.33,2.84,10.48,10.48,0,0,1-5,1.1,10,10,0,0,1-6-2,8.16,8.16,0,0,1-2-2.23,6.55,6.55,0,0,1-.95-2.88h27.31a13,13,0,0,0,.08-1.43V65.13A24.82,24.82,0,0,0,501.34,56.51Zm-26,3.86a6.64,6.64,0,0,1,.76-2.76,7.54,7.54,0,0,1,1.82-2.31,8.64,8.64,0,0,1,2.64-1.55,9.39,9.39,0,0,1,3.33-.57,7,7,0,0,1,5.56,2.12,7.41,7.41,0,0,1,1.85,5.07Z"/><path class="cls-1" d="M73.41,94.66a36.24,36.24,0,0,1-15.86,3.65q-8.92,0-15-4.25T36.41,80.79V78.85a239,239,0,0,0,26.08-1.47A91.74,91.74,0,0,0,86.8,71.54a45.19,45.19,0,0,0,17.85-12.41q6.94-8,6.93-21.17,0-10.7-4-18A33.67,33.67,0,0,0,97.37,8.28,41.91,41.91,0,0,0,83.63,2,58.39,58.39,0,0,0,69.07,0,46.57,46.57,0,0,0,49.45,4.14,29.25,29.25,0,0,0,35.94,15.82h-.7V2.92H0V64A121.8,121.8,0,0,0,2.94,92.59q2.94,12,9.28,20a37.34,37.34,0,0,0,16.56,11.68Q39,128,53.8,128a79.87,79.87,0,0,0,28.07-5.11A67.22,67.22,0,0,0,106,107.56L86.45,85.9A50.28,50.28,0,0,1,73.41,94.66ZM35.24,51.59q0-11.45,6.22-18.13t18-6.69a29.82,29.82,0,0,1,5.88.61,15.83,15.83,0,0,1,5.4,2.07,11.92,11.92,0,0,1,3.88,3.89,10.72,10.72,0,0,1,1.52,5.84,11.68,11.68,0,0,1-3.28,8.64,21.19,21.19,0,0,1-8.35,5A51.49,51.49,0,0,1,53,55.12q-6.45.6-12.8.61H35.24Z"/></svg>