<?xml version="1.0" encoding="utf-8"?>
<!-- Generator: Adobe Illustrator 24.0.3, SVG Export Plug-In . SVG Version: 6.00 Build 0)  -->
<svg version="1.1" id="layer_1" xmlns="http://www.w3.org/2000/svg" xmlns:xlink="http://www.w3.org/1999/xlink" x="0px" y="0px"
	 viewBox="0 0 502.7 128" style="enable-background:new 0 0 502.7 128;" xml:space="preserve">
<style type="text/css">
	.st0{fill:#E55CFF;}
</style>
<title>e-text-purple</title>
<polygon class="st0" points="144.5,83.5 144.5,30 180.5,30 180.5,40.8 157,40.8 157,51 179.2,51 179.2,61.3 157,61.3 157,72.5 
	181.9,72.5 181.9,83.5 "/>
<path class="st0" d="M211.7,67.1h-1.6c-1.4,0-2.7,0.1-4.1,0.2c-1.3,0.1-2.5,0.3-3.7,0.7c-1,0.3-1.9,0.8-2.7,1.6
	c-0.7,0.7-1.1,1.7-1.1,2.7c0,0.6,0.2,1.3,0.5,1.8c0.3,0.5,0.7,0.9,1.2,1.2c0.5,0.3,1.1,0.5,1.7,0.6c0.6,0.1,1.3,0.2,1.9,0.2
	c2.1,0.1,4.2-0.6,5.8-2.1c1.4-1.5,2.1-3.6,2-5.6L211.7,67.1z M188.9,51c2.2-2.1,4.9-3.7,7.8-4.8c2.9-1,5.9-1.6,9-1.6
	c2.7-0.1,5.5,0.3,8.1,1.2c2.1,0.7,3.9,2,5.3,3.6c1.5,1.8,2.5,3.9,3,6.2c0.7,2.9,1,5.9,0.9,8.9v19h-11.3v-4h-0.2
	c-1,1.6-2.6,2.9-4.4,3.6c-2,0.9-4.1,1.3-6.3,1.3c-1.6,0-3.2-0.2-4.7-0.6c-1.6-0.4-3.1-1.1-4.4-2c-1.4-0.9-2.5-2.2-3.3-3.6
	c-0.9-1.7-1.4-3.7-1.3-5.6c-0.1-2.4,0.7-4.8,2.2-6.6c1.6-1.7,3.6-3,5.8-3.8c2.5-1,5.2-1.6,7.8-1.8c2.8-0.3,5.6-0.4,8.4-0.5v-0.6
	c0.1-1.6-0.7-3.2-2-4.1c-1.4-0.9-3.1-1.4-4.8-1.3c-1.8,0-3.5,0.4-5.1,1.2c-1.5,0.7-2.9,1.6-4.2,2.7L188.9,51z"/>
<path class="st0" d="M253.9,57c-1.1-1-2.2-1.8-3.6-2.4c-1.3-0.7-2.8-1-4.3-1c-1.1,0-2.2,0.2-3.2,0.7c-0.9,0.4-1.5,1.3-1.5,2.3
	c0,1,0.6,1.9,1.6,2.3c1.7,0.6,3.5,1.1,5.3,1.5c1.5,0.3,2.9,0.7,4.3,1.3c1.4,0.5,2.7,1.3,3.9,2.2c1.2,0.9,2.1,2,2.8,3.3
	c0.7,1.5,1.1,3.1,1.1,4.7c0.2,4-1.8,7.8-5.2,10c-1.6,1-3.3,1.8-5.2,2.2c-1.9,0.4-3.8,0.7-5.8,0.7c-3.1,0-6.1-0.5-9-1.5
	c-2.8-0.9-5.3-2.4-7.4-4.3l7-7.3c1.2,1.2,2.5,2.3,4.1,3c1.6,0.8,3.3,1.2,5.1,1.2c1,0,2.1-0.3,3-0.7c1-0.5,1.6-1.5,1.5-2.5
	c0-1.2-0.8-2.2-1.9-2.6c-1.8-0.7-3.7-1.3-5.7-1.7c-1.3-0.3-2.7-0.8-3.9-1.3c-1.3-0.5-2.5-1.1-3.5-2c-1-0.9-1.9-2-2.5-3.2
	c-0.7-1.4-1-3-1-4.5c-0.1-2,0.4-4,1.4-5.8c0.9-1.6,2.2-2.9,3.7-3.9c1.5-1,3.2-1.8,5-2.2c1.8-0.5,3.6-0.7,5.5-0.7
	c2.8,0,5.6,0.5,8.3,1.4c2.5,0.8,4.9,2.2,6.8,4L253.9,57z"/>
<path class="st0" d="M289.4,89.2c-0.7,1.8-1.5,3.6-2.5,5.3c-0.9,1.5-2,2.8-3.3,3.9c-1.3,1.1-2.9,1.9-4.5,2.5c-2,0.6-4.1,0.9-6.2,0.8
	c-1.2,0-2.4-0.1-3.6-0.2c-1.1-0.1-2.2-0.3-3.2-0.6l1.4-10.4c0.7,0.2,1.3,0.4,2,0.5c0.7,0.1,1.3,0.2,2,0.2c1.5,0.1,3-0.3,4.2-1.3
	c1-1.1,1.7-2.4,2.2-3.8l1.2-3.1l-15.7-37.1H277l8.4,24.2h0.2l7.5-24.2h13.2L289.4,89.2z"/>
<path class="st0" d="M341.6,44.3l-6.8,18.4h13.5L341.6,44.3z M356,83.5L351.8,73h-20.7l-3.9,10.5h-14.1L335.6,30h12.6l22.2,53.6
	L356,83.5z"/>
<path class="st0" d="M401.3,64.4c0-1.2-0.2-2.5-0.6-3.6c-0.4-1.1-1-2.2-1.9-3.1c-0.8-0.9-1.8-1.6-2.9-2.1c-1.2-0.5-2.5-0.8-3.8-0.8
	c-1.3,0-2.6,0.2-3.8,0.8c-1,0.5-2,1.2-2.8,2c-0.8,0.9-1.4,1.9-1.7,3c-0.4,1.2-0.6,2.4-0.6,3.7c0,1.2,0.2,2.5,0.6,3.6
	c0.4,1.1,1,2.2,1.7,3.1c0.8,0.9,1.7,1.6,2.8,2.1c1.2,0.5,2.5,0.8,3.8,0.8c1.3,0,2.6-0.2,3.8-0.8c1.1-0.5,2.1-1.2,2.9-2.1
	c0.8-0.9,1.4-1.9,1.8-3C401.1,66.9,401.3,65.7,401.3,64.4 M413.1,80c0.1,3.3-0.5,6.5-1.6,9.6c-1,2.6-2.5,4.9-4.5,6.7
	c-2,1.8-4.4,3.2-7,4c-2.9,0.9-6,1.4-9.1,1.3c-3.5,0-6.9-0.5-10.2-1.5c-3.3-0.9-6.4-2.4-9.1-4.4l6.2-8.8c1.7,1.6,3.8,2.8,6,3.6
	c2.1,0.8,4.3,1.2,6.5,1.2c3.6,0,6.3-1,8.1-2.9c1.8-2.1,2.7-4.9,2.6-7.6v-2.3h-0.2c-1.2,1.6-2.8,2.8-4.6,3.6
	c-2.1,0.9-4.4,1.4-6.7,1.4c-2.6,0.1-5.2-0.5-7.6-1.6c-2.1-1-4.1-2.4-5.6-4.2c-1.6-1.8-2.8-3.9-3.5-6.2c-0.8-2.4-1.2-4.9-1.2-7.4
	c0-2.6,0.4-5.1,1.2-7.6c0.8-2.3,2-4.4,3.5-6.2c1.6-1.8,3.5-3.3,5.6-4.3c2.4-1.1,5-1.7,7.6-1.6c2.3,0,4.7,0.5,6.8,1.4
	c2.1,0.9,4,2.5,5.2,4.5h0.1v-4.9h11.7L413.1,80z"/>
<path class="st0" d="M422.2,45.8h12.4v37.7h-12.4V45.8z M435.5,33.8c0,0.9-0.2,1.8-0.6,2.7c-0.4,0.8-0.9,1.5-1.5,2.2
	c-0.7,0.6-1.4,1.1-2.3,1.4c-0.9,0.4-1.8,0.5-2.8,0.5c-1.9,0.1-3.7-0.7-5.1-2c-1.3-1.2-2.1-3-2-4.8c0-0.9,0.2-1.8,0.5-2.6
	c0.3-0.8,0.9-1.6,1.5-2.2c0.7-0.6,1.4-1.1,2.3-1.5c0.9-0.4,1.8-0.6,2.8-0.6c0.9,0,1.9,0.2,2.8,0.5c0.8,0.3,1.6,0.8,2.3,1.4
	c0.6,0.6,1.2,1.3,1.5,2.1C435.3,32,435.5,32.9,435.5,33.8"/>
<rect x="443.7" y="26.3" class="st0" width="12.6" height="57.2"/>
<path class="st0" d="M501.3,56.5c-0.9-2.4-2.2-4.6-3.9-6.4c-1.7-1.8-3.7-3.1-6-4c-2.4-1-5-1.4-7.6-1.4c-2.7,0-5.4,0.5-8,1.4
	c-2.4,0.9-4.6,2.3-6.4,4c-1.9,1.8-3.3,4-4.3,6.3c-1.1,2.7-1.6,5.5-1.6,8.4c-0.1,2.9,0.5,5.8,1.6,8.5c1,2.4,2.6,4.5,4.5,6.2
	c1.9,1.7,4.2,3,6.6,3.8c2.6,0.9,5.3,1.3,8,1.3c3.5,0.1,6.9-0.6,10.1-2.1c2.8-1.3,5.2-3.4,7-5.9l-8.6-5.4c-0.9,1.2-2,2.2-3.3,2.8
	c-1.6,0.8-3.3,1.2-5,1.1c-2.2,0-4.3-0.7-6-2c-0.8-0.6-1.5-1.4-2-2.2c-0.5-0.9-0.9-1.9-1-2.9h27.3c0.1-0.5,0.1-1,0.1-1.4v-1.5
	C502.8,62.2,502.3,59.3,501.3,56.5z M475.3,60.4c0-1,0.3-1.9,0.8-2.8c0.4-0.9,1.1-1.7,1.8-2.3c0.8-0.7,1.7-1.2,2.6-1.5
	c1.1-0.4,2.2-0.6,3.3-0.6c2.1-0.2,4.1,0.6,5.6,2.1c1.2,1.4,1.9,3.2,1.9,5.1H475.3z"/>
<path class="st0" d="M73.4,94.7c-4.9,2.4-10.4,3.7-15.9,3.7c-5.9,0-10.9-1.4-15-4.2c-4.1-2.8-6.1-7.3-6.1-13.3v-1.9
	c8.7,0,17.4-0.5,26.1-1.5c8.3-0.8,16.5-2.8,24.3-5.8c6.9-2.6,13-6.9,17.8-12.4c4.6-5.3,6.9-12.4,6.9-21.2c0-7.1-1.3-13.1-4-18
	c-2.4-4.6-5.9-8.6-10.2-11.7c-4.2-2.9-8.8-5-13.7-6.3C78.9,0.7,74,0.1,69.1,0c-6.8-0.1-13.5,1.4-19.6,4.1
	c-5.6,2.4-10.3,6.5-13.5,11.7h-0.7V2.9H0V64c-0.2,9.6,0.8,19.2,2.9,28.6c2,8,5.1,14.7,9.3,20c4.3,5.3,10.1,9.4,16.6,11.7
	c6.8,2.5,15.2,3.7,25,3.7c9.6,0,19.1-1.7,28.1-5.1c9-3.3,17.3-8.5,24.1-15.3L86.4,85.9C82.6,89.5,78.2,92.4,73.4,94.7z M35.2,51.6
	c0-7.6,2.1-13.7,6.2-18.1s10.1-6.7,18-6.7c2,0,3.9,0.2,5.9,0.6c1.9,0.4,3.7,1.1,5.4,2.1c1.6,1,2.9,2.3,3.9,3.9
	c1.1,1.8,1.6,3.8,1.5,5.8c0.1,3.2-1,6.3-3.3,8.6c-2.4,2.3-5.2,4-8.3,5c-3.7,1.2-7.6,2-11.5,2.3c-4.3,0.4-8.6,0.6-12.8,0.6h-5V51.6z"
	/>
</svg>
